<svg viewBox="0 0 26 30" fill="none" xmlns="http://www.w3.org/2000/svg">
<path d="M24.7339 22.8223C24.2848 23.8454 23.7533 24.7872 23.1374 25.6531C22.2979 26.8335 21.6105 27.6506 21.0808 28.1043C20.2596 28.8491 19.3797 29.2305 18.4376 29.2522C17.7612 29.2522 16.9455 29.0624 15.996 28.6774C15.0434 28.2941 14.168 28.1043 13.3675 28.1043C12.528 28.1043 11.6276 28.2941 10.6646 28.6774C9.70007 29.0624 8.92306 29.2631 8.32899 29.2829C7.4255 29.3209 6.52495 28.9286 5.62605 28.1043C5.05233 27.6108 4.33471 26.7648 3.47504 25.5663C2.55267 24.2865 1.79436 22.8024 1.20029 21.1104C0.564058 19.2828 0.245117 17.5131 0.245117 15.7998C0.245117 13.8371 0.675138 12.1444 1.53646 10.7259C2.21339 9.58654 3.11394 8.68776 4.24104 8.02795C5.36815 7.36815 6.58599 7.03192 7.8975 7.01041C8.61512 7.01041 9.55618 7.22932 10.7256 7.65955C11.8918 8.09122 12.6406 8.31013 12.9688 8.31013C13.2143 8.31013 14.0461 8.05416 15.4562 7.54385C16.7897 7.0706 17.9152 6.87465 18.8372 6.95184C21.3355 7.15068 23.2125 8.12195 24.4608 9.8718C22.2264 11.207 21.1211 13.077 21.1431 15.476C21.1632 17.3446 21.8506 18.8996 23.2015 20.1342C23.8138 20.7073 24.4975 21.1502 25.2581 21.4647C25.0932 21.9365 24.919 22.3884 24.7339 22.8223ZM19.004 0.585876C19.004 2.05048 18.4614 3.41798 17.3799 4.68373C16.0749 6.18845 14.4963 7.05795 12.7844 6.92074C12.7626 6.74504 12.75 6.56011 12.75 6.36578C12.75 4.95976 13.3706 3.45504 14.4728 2.22473C15.0231 1.6018 15.7229 1.08384 16.5716 0.670656C17.4184 0.263636 18.2195 0.0385458 18.9728 0C18.9948 0.195795 19.004 0.391603 19.004 0.585857V0.585876Z" fill="white"/>
</svg>
