<svg  viewBox="0 0 119 119" fill="none" xmlns="http://www.w3.org/2000/svg">
<path d="M108.31 103.38L95.8257 87.3296C99.8712 86.1209 103.366 83.5336 105.703 80.0172C108.643 74.9351 107.313 68.7328 106.027 62.7417C105.249 59.6641 104.784 56.5158 104.638 53.3448C104.783 50.1711 105.248 47.0199 106.027 43.9397C107.305 37.9446 108.643 31.7463 105.703 26.6724C102.658 21.4118 96.5274 19.4647 90.5979 17.5853C87.6462 16.7721 84.7877 15.6526 82.0689 14.2451C79.6017 12.6448 77.3109 10.788 75.2346 8.70547C70.8357 4.62253 65.8479 0 59.4999 0C53.1519 0 48.1641 4.62253 43.7632 8.70341C41.6876 10.7864 39.3974 12.644 36.931 14.2451C34.2124 15.6498 31.3546 16.7664 28.404 17.5771C22.4745 19.4565 16.3439 21.4036 13.2992 26.6642C10.3591 31.7463 11.6886 37.9487 12.975 43.9397C13.7529 47.0201 14.2176 50.1711 14.362 53.3448C14.2168 56.5186 13.7516 59.6698 12.973 62.7499C11.6947 68.7451 10.357 74.9433 13.2971 80.0172C15.6371 83.5349 19.1356 86.1214 23.1844 87.3275L10.6894 103.378C9.99386 104.273 10.1552 105.562 11.05 106.257C11.4798 106.591 12.0246 106.741 12.5647 106.673L27.2345 104.841L30.8558 117.513C31.0679 118.255 31.6793 118.816 32.4377 118.963C32.5662 118.987 32.6967 119 32.8275 119C33.461 119.001 34.0593 118.708 34.4484 118.208L47.5507 101.355C50.775 104.494 55.0102 106.385 59.4999 106.69C63.9896 106.385 68.2249 104.494 71.4492 101.355L84.5515 118.202C84.9392 118.704 85.5376 118.999 86.1723 119C86.3031 119 86.4337 118.987 86.5622 118.963C87.3205 118.816 87.9319 118.255 88.144 117.513L91.7653 104.843L106.435 106.675C107.56 106.816 108.585 106.019 108.726 104.895C108.794 104.355 108.645 103.81 108.31 103.38ZM33.6892 112.498L30.6958 102.022C30.4175 101.05 29.4727 100.426 28.4696 100.551L16.98 101.987L27.2776 88.7494L28.4122 89.1125C31.36 89.9237 34.215 91.0404 36.931 92.4445C39.3981 94.0449 41.6889 95.9017 43.7652 97.9842L44.471 98.6366L33.6892 112.498ZM59.4999 102.586C54.7604 102.586 50.7739 98.8931 46.5515 94.9784C44.2543 92.6833 41.7169 90.6426 38.9827 88.891C36.0079 87.3337 32.8765 86.0957 29.6412 85.1979C24.2185 83.4765 19.0953 81.8515 16.8466 77.9655C14.7005 74.254 15.8084 69.0816 16.9841 63.6035C17.8302 60.244 18.3267 56.8063 18.4654 53.3448C18.3275 49.8833 17.8317 46.4456 16.9861 43.0862C15.8105 37.6102 14.7026 32.4378 16.8487 28.7241C19.1056 24.8382 24.2205 23.2132 29.6432 21.4918C32.878 20.5937 36.0084 19.3557 38.9827 17.7987C41.7161 16.047 44.253 14.0061 46.5494 11.7112C50.7739 7.79655 54.7604 4.10345 59.4999 4.10345C64.2394 4.10345 68.2259 7.79655 72.4483 11.7112C74.7455 14.0064 77.283 16.047 80.0172 17.7987C82.9919 19.356 86.1234 20.5939 89.3587 21.4918C94.7814 23.2132 99.9045 24.8382 102.153 28.7241C104.299 32.4357 103.191 37.6081 102.016 43.0862C101.17 46.4456 100.673 49.8833 100.534 53.3448C100.672 56.8063 101.168 60.244 102.014 63.6035C103.189 69.0795 104.297 74.2519 102.151 77.9655C99.8943 81.8515 94.7793 83.4765 89.3566 85.1979C86.1218 86.096 82.9914 87.334 80.0172 88.891C77.2838 90.6426 74.7468 92.6836 72.4504 94.9784C68.2259 98.8931 64.2394 102.586 59.4999 102.586ZM90.5405 100.551C89.5374 100.426 88.5926 101.05 88.3143 102.022L85.3106 112.498L74.5308 98.6387L75.2366 97.9862C77.3122 95.9032 79.6025 94.0456 82.0689 92.4445C84.7874 91.0399 87.6452 89.9232 90.5958 89.1125L91.7305 88.7494L102.03 101.987L90.5405 100.551Z" />
<path d="M59.4999 16.4141C39.1034 16.4141 22.5688 32.9487 22.5688 53.3451C22.5688 73.7416 39.1034 90.2761 59.4999 90.2761C79.8963 90.2761 96.4309 73.7416 96.4309 53.3451C96.4073 32.9584 79.8866 16.4379 59.4999 16.4141ZM59.4999 86.1727C41.3698 86.1727 26.6723 71.4752 26.6723 53.3451C26.6723 35.215 41.3698 20.5175 59.4999 20.5175C77.6299 20.5175 92.3275 35.215 92.3275 53.3451C92.3059 71.4664 77.6212 86.1512 59.4999 86.1727Z" />
<path d="M83.1726 44.7748C82.4006 43.7143 81.1686 43.0868 79.857 43.0863H67.2964L63.3981 31.1309C62.6905 28.9778 60.3715 27.8063 58.2185 28.5139C56.98 28.9209 56.0086 29.8924 55.6015 31.1309L51.7135 43.0863H39.1426C36.8762 43.0852 35.0381 44.9213 35.0371 47.1877C35.0363 48.5008 35.6642 49.7346 36.7257 50.5074L46.894 57.8936L43.0101 69.849C42.3094 72.0043 43.4889 74.3194 45.644 75.0198C46.8938 75.4261 48.2623 75.2091 49.3253 74.4366L59.4998 67.0525L69.6702 74.4387C71.1028 75.503 73.0632 75.503 74.4959 74.4387C75.9498 73.4054 76.555 71.5414 75.9854 69.851L72.1015 57.8936L82.2698 50.5074C84.1023 49.1737 84.5065 46.607 83.1726 44.7748ZM68.4823 55.452C67.7626 55.9749 67.4618 56.9021 67.7375 57.7479L72.083 71.121L60.7062 62.8567C59.9874 62.3348 59.0143 62.3348 58.2955 62.8567L46.9186 71.121L51.2621 57.7479C51.5368 56.9026 51.2362 55.9767 50.5174 55.4541L39.1426 47.1897H53.2031C54.092 47.1897 54.8796 46.6173 55.1543 45.772L59.4998 32.3988L63.8454 45.7699C64.12 46.6152 64.9076 47.1877 65.7966 47.1877L79.857 47.1897L68.4823 55.452Z" />
</svg>
