<svg viewBox="0 0 120 120" fill="none" xmlns="http://www.w3.org/2000/svg">
<g clip-path="url(#clip0)">
<path d="M44.4815 96.9039C56.2734 96.9039 65.8667 87.3106 65.8667 75.5186C65.8667 63.7266 56.2734 54.1333 44.4815 54.1333C32.6895 54.1333 23.0962 63.7266 23.0962 75.5186C23.0962 87.3106 32.6898 96.9039 44.4815 96.9039ZM44.4815 57.7993C54.252 57.7993 62.2007 65.7481 62.2007 75.5186C62.2007 85.2891 54.252 93.2378 44.4815 93.2378C34.711 93.2378 26.7622 85.2891 26.7622 75.5186C26.7622 65.7481 34.7112 57.7993 44.4815 57.7993Z" />
<path d="M18.9414 75.5187C18.9414 61.4357 30.3986 49.9785 44.4816 49.9785C48.3123 49.9785 51.995 50.8054 55.4272 52.436C56.3415 52.8703 57.4349 52.4812 57.8695 51.5669C58.3038 50.6526 57.9149 49.5592 57.0004 49.1246C53.0728 47.2586 48.861 46.3125 44.4816 46.3125C28.3771 46.3125 15.2754 59.4142 15.2754 75.5187C15.2754 82.1491 17.4415 88.3997 21.5394 93.5942C21.9012 94.0527 22.4379 94.292 22.9797 94.292C23.3771 94.292 23.7774 94.1632 24.1137 93.898C24.9085 93.2711 25.0447 92.1185 24.4175 91.3237C20.8351 86.7825 18.9414 81.3171 18.9414 75.5187Z" />
<path d="M68.4336 62.1309C67.5193 62.5652 67.1302 63.6587 67.5645 64.5732C69.1949 68.0054 70.0215 71.6878 70.0215 75.5183C70.0215 89.6013 58.5644 101.058 44.4814 101.058C38.6812 101.058 33.2146 99.1638 28.6729 95.5794C27.8783 94.9525 26.7257 95.0884 26.0983 95.8827C25.4712 96.6775 25.6068 97.8301 26.4016 98.4573C31.5969 102.557 37.8488 104.725 44.4814 104.725C60.5858 104.725 73.6875 91.6228 73.6875 75.5183C73.6875 71.1394 72.7415 66.9278 70.8759 63C70.4416 62.0859 69.3484 61.6964 68.4336 62.1309Z" />
<path d="M60.9032 55.9568C62.0357 56.9087 63.0925 57.9658 64.0445 59.0984C64.4069 59.5297 64.926 59.7521 65.4488 59.7521C65.865 59.7521 66.2837 59.6111 66.6271 59.3225C67.4021 58.6711 67.5025 57.5149 66.8512 56.7399C65.7639 55.4457 64.5563 54.2381 63.2622 53.1506C62.4869 52.499 61.3309 52.5997 60.6795 53.3744C60.028 54.1492 60.1282 55.3055 60.9032 55.9568Z" />
<path d="M119.127 30.5037L114.702 27.782C114.755 26.8227 114.743 25.8661 114.668 24.9198L119.018 22.0806C119.671 21.6543 119.983 20.8613 119.795 20.1043C119.076 17.2067 117.896 14.4623 116.287 11.9471C115.867 11.2902 115.077 10.9703 114.318 11.1519L109.265 12.3563C108.63 11.6507 107.944 10.9839 107.211 10.3624L108.28 5.27836C108.44 4.51484 108.1 3.73373 107.432 3.3312C106.041 2.49338 104.739 1.83692 103.452 1.32391C102.164 0.810424 100.767 0.391517 99.1825 0.0429981C98.4203 -0.124907 97.6362 0.208703 97.2276 0.872991L94.5059 5.29815C93.5466 5.24536 92.59 5.25685 91.6437 5.33213L88.8045 0.982239C88.378 0.329194 87.5849 0.0168469 86.8282 0.205037C83.9306 0.923583 81.1862 2.10381 78.671 3.71271C78.0141 4.13308 77.6949 4.923 77.8757 5.68187L79.0801 10.7351C78.3741 11.3701 77.7078 12.0566 77.0863 12.7889L72.0022 11.7203C71.2385 11.56 70.4576 11.9002 70.0551 12.5684C69.2173 13.9591 68.5608 15.261 68.0478 16.548C67.5343 17.8363 67.1154 19.2328 66.7669 20.8175C66.5995 21.5793 66.9323 22.3638 67.5969 22.7725L72.022 25.4942C71.9692 26.4534 71.9807 27.41 72.0562 28.3564L67.7061 31.1956C67.0528 31.6221 66.741 32.4149 66.9289 33.1718C67.5084 35.5081 68.3929 37.7422 69.5548 39.8389L65.1541 42.4772C64.4157 42.0219 63.6214 41.572 62.7589 41.1206L62.8464 35.8307C62.8589 35.0799 62.4119 34.3973 61.7187 34.1084C58.0752 32.5902 54.216 31.5615 50.2484 31.0514C49.5047 30.9563 48.7768 31.3234 48.4124 31.9794L45.8548 36.584C44.9637 36.5292 43.999 36.5292 43.1079 36.584L40.5502 31.9794C40.1861 31.3234 39.4585 30.9571 38.7143 31.0514C34.7466 31.5615 30.8875 32.5899 27.2439 34.1084C26.5508 34.3973 26.1038 35.0799 26.1163 35.8307L26.2038 41.1206C25.3413 41.572 24.547 42.0219 23.8086 42.4772L19.3055 39.7771C18.6607 39.3902 17.8454 39.4366 17.2486 39.8937C14.0946 42.3081 11.2712 45.1315 8.85676 48.2855C8.39973 48.8823 8.35353 49.6977 8.74018 50.3424L11.4403 54.8455C10.985 55.5841 10.5351 56.3782 10.0839 57.2407L4.79405 57.1532C4.0557 57.1412 3.36062 57.5875 3.07174 58.2808C1.55302 61.9244 0.524567 65.7835 0.0144975 69.7512C-0.0810641 70.4954 0.286518 71.2227 0.942496 71.5871L5.54705 74.1448C5.51968 74.5904 5.49891 75.0474 5.49891 75.5184C5.49891 75.9893 5.51968 76.4461 5.54705 76.8919L0.942496 79.4496C0.286518 79.814 -0.0810641 80.5413 0.0144975 81.2855C0.524567 85.2532 1.55302 89.1123 3.07149 92.7559C3.36038 93.449 4.04495 93.8904 4.7938 93.8835L10.0837 93.7961C10.5351 94.6585 10.985 95.4529 11.4403 96.1912L8.74018 100.694C8.35353 101.339 8.39973 102.154 8.85676 102.751C11.2712 105.905 14.0946 108.729 17.2486 111.143C17.8454 111.6 18.661 111.647 19.3055 111.26L23.8086 108.559C24.547 109.015 25.3413 109.465 26.2038 109.916L26.1163 115.206C26.1038 115.957 26.5508 116.639 27.2439 116.928C30.8875 118.447 34.7466 119.475 38.7143 119.985C39.4578 120.08 40.1858 119.713 40.5502 119.057L43.1079 114.453C43.999 114.508 44.9637 114.508 45.8548 114.453L48.4124 119.057C48.7382 119.644 49.3549 120 50.0143 120C50.092 120 50.1702 119.995 50.2484 119.985C54.216 119.475 58.0752 118.447 61.7187 116.928C62.4119 116.639 62.8589 115.957 62.8464 115.206L62.7589 109.916C63.6214 109.465 64.4157 109.015 65.1541 108.559L69.6572 111.26C70.3017 111.646 71.117 111.6 71.7141 111.143C74.8681 108.729 77.6914 105.905 80.1059 102.751C80.5629 102.154 80.6091 101.339 80.2225 100.694L77.5223 96.1912C77.9776 95.4529 78.4276 94.6585 78.879 93.7961L84.1689 93.8835C84.9219 93.8877 85.6023 93.449 85.8912 92.7559C87.4097 89.1123 88.4381 85.2532 88.9482 81.2855C89.0437 80.5413 88.6761 79.814 88.0202 79.4496L83.4156 76.8919C83.443 76.4464 83.4638 75.9896 83.4638 75.5184C83.4638 75.0471 83.443 74.5904 83.4156 74.1448L88.0202 71.5871C88.6761 71.2227 89.0437 70.4954 88.9482 69.7512C88.4381 65.7835 87.4097 61.9244 85.8912 58.2808C85.6023 57.5877 84.9155 57.1471 84.1689 57.1532L78.879 57.2407C78.4276 56.3782 77.9779 55.5841 77.5226 54.8455L80.1592 50.4485C81.2299 51.0509 82.2559 51.5471 83.2719 51.9518C84.5599 52.4653 85.9564 52.8842 87.5414 53.2327C87.6726 53.2615 87.8046 53.2755 87.9351 53.2755C88.5623 53.2755 89.1579 52.9526 89.4961 52.4027L92.218 47.9775C93.1771 48.0306 94.1337 48.0188 95.0802 47.9433L97.9195 52.2937C98.3457 52.9467 99.1388 53.2586 99.8957 53.0709C102.793 52.3521 105.538 51.1719 108.053 49.5632C108.71 49.1429 109.029 48.3527 108.848 47.5941L107.644 42.5408C108.35 41.9058 109.016 41.2196 109.638 40.4871L114.722 41.5556C115.485 41.715 116.266 41.376 116.669 40.7075C117.507 39.3169 118.163 38.0149 118.676 36.7279C119.19 35.4399 119.609 34.0434 119.957 32.4584C120.124 31.6966 119.791 30.9121 119.127 30.5037ZM77.7946 60.9253L82.9652 60.8395C83.9636 63.4602 84.6914 66.1941 85.1362 68.9952L80.6189 71.5048C79.9998 71.8486 79.6345 72.5181 79.6799 73.2249C79.6909 73.3957 79.7026 73.5666 79.7146 73.7374C79.7574 74.355 79.798 74.9386 79.798 75.5184C79.798 76.0981 79.7574 76.6815 79.7146 77.2991C79.7029 77.4699 79.6909 77.6408 79.6799 77.8118C79.6345 78.5187 80.0001 79.1881 80.6189 79.5319L85.1362 82.0415C84.6914 84.8426 83.9636 87.5765 82.9652 90.1972L77.7946 90.1117C77.0848 90.1021 76.435 90.4971 76.1212 91.1318C75.3528 92.6852 74.6073 93.996 73.8421 95.1386C73.4474 95.7283 73.4283 96.4928 73.7932 97.1011L76.4276 101.495C74.6464 103.682 72.645 105.684 70.4574 107.465L66.064 104.83C65.4552 104.465 64.6907 104.485 64.1014 104.879C62.9588 105.644 61.6481 106.39 60.0947 107.158C59.4599 107.472 59.0628 108.124 59.0745 108.832L59.1601 114.002C56.5393 115.001 53.8054 115.729 51.0043 116.173L48.4948 111.656C48.1702 111.072 47.5553 110.713 46.8927 110.713C46.8536 110.713 46.814 110.714 46.7747 110.717C46.6036 110.728 46.433 110.74 46.2619 110.752C45.6443 110.795 45.0609 110.835 44.4812 110.835C43.9015 110.835 43.3181 110.795 42.7005 110.752C42.5297 110.74 42.3588 110.728 42.1877 110.717C41.4785 110.669 40.8115 111.037 40.4676 111.656L37.9581 116.173C35.157 115.729 32.4231 115.001 29.8024 114.002L29.8879 108.832C29.8996 108.124 29.5025 107.472 28.8678 107.158C27.3143 106.39 26.0036 105.644 24.861 104.879C24.2715 104.485 23.507 104.466 22.8985 104.83L18.5051 107.465C16.3172 105.684 14.3158 103.682 12.5348 101.495L15.1692 97.1011C15.5341 96.4926 15.515 95.7281 15.1203 95.1386C14.3551 93.996 13.6097 92.6852 12.8413 91.1318C12.5275 90.4971 11.8849 90.1056 11.1678 90.1117L5.99724 90.1972C4.99886 87.5765 4.27102 84.8426 3.82621 82.0415L8.34351 79.5319C8.96259 79.1881 9.32797 78.5187 9.28251 77.8118C9.27151 77.6408 9.25978 77.4702 9.24781 77.2991C9.20504 76.6815 9.16446 76.0981 9.16446 75.5184C9.16446 74.9384 9.20504 74.355 9.24781 73.7374C9.25954 73.5666 9.27151 73.396 9.28251 73.2249C9.32797 72.5181 8.96234 71.8486 8.34351 71.5048L3.82621 68.9952C4.27102 66.1941 4.99861 63.4602 5.99724 60.8395L11.1678 60.9253C11.8754 60.9334 12.5275 60.5399 12.8413 59.9052C13.6094 58.3522 14.3549 57.0415 15.1203 55.8982C15.515 55.3087 15.5341 54.5442 15.1692 53.9356L12.5348 49.5422C14.316 47.3543 16.3174 45.3529 18.5051 43.5719L22.8985 46.2064C23.5068 46.5715 24.2715 46.5522 24.861 46.1575C26.0036 45.3922 27.3143 44.6468 28.8678 43.8784C29.5025 43.5646 29.8996 42.913 29.8879 42.205L29.8024 37.0344C32.4231 36.036 35.157 35.3082 37.9581 34.8634L40.4676 39.3807C40.8113 39.9995 41.4797 40.3676 42.1877 40.3197C42.3588 40.3087 42.5294 40.2969 42.7005 40.285C43.3181 40.2422 43.9015 40.2016 44.4812 40.2016C45.0609 40.2016 45.6443 40.2422 46.2619 40.285C46.4328 40.2967 46.6036 40.3087 46.7747 40.3197C47.4818 40.3651 48.1509 39.9995 48.4948 39.3807L51.0043 34.8634C53.8054 35.3082 56.5393 36.036 59.1601 37.0344L59.0745 42.205C59.0628 42.913 59.4599 43.5646 60.0947 43.8784C61.6481 44.6468 62.9588 45.3922 64.1014 46.1575C64.6909 46.5522 65.4556 46.5715 66.064 46.2064L70.4574 43.5719C72.6453 45.3531 74.6467 47.3546 76.4276 49.5422L73.7932 53.9356C73.4283 54.5442 73.4474 55.3087 73.8421 55.8982C74.6076 57.0415 75.353 58.352 76.1212 59.9052C76.4352 60.5399 77.0802 60.9338 77.7946 60.9253ZM73.9795 41.7487L77.4585 40.9194C78.0937 41.6253 78.78 42.2917 79.5125 42.9133L78.7385 46.5959C77.275 44.8638 75.6864 43.241 73.9795 41.7487ZM115.27 35.3707C114.97 36.1255 114.607 36.8931 114.172 37.694L109.291 36.6683C108.597 36.5224 107.882 36.7893 107.454 37.3533C106.572 38.5143 105.562 39.5539 104.454 40.4428C103.901 40.8859 103.653 41.6086 103.817 42.2979L104.971 47.1407C103.477 47.9861 101.899 48.6648 100.257 49.168L97.5363 44.9988C97.1489 44.4053 96.4545 44.0879 95.7521 44.1847C94.3436 44.378 92.8948 44.3956 91.4452 44.237C90.7404 44.1605 90.0556 44.4955 89.6846 45.0987L87.0714 49.3472C86.1911 49.1121 85.3845 48.8474 84.6291 48.5463C83.8744 48.2454 83.1067 47.8827 82.3058 47.4477L83.3315 42.5665C83.4772 41.8733 83.2103 41.1582 82.6465 40.7298C81.4856 39.848 80.4461 38.8383 79.5567 37.7292C79.1134 37.1761 78.3912 36.9281 77.7017 37.0928L72.8589 38.2471C72.0135 36.7526 71.335 35.1747 70.8318 33.5328L75.0011 30.8119C75.5947 30.4245 75.9117 29.7297 75.8152 29.0275C75.6218 27.6197 75.6042 26.1709 75.7629 24.7211C75.8399 24.017 75.5043 23.3314 74.9011 22.9604L70.6526 20.3473C70.8878 19.4669 71.1524 18.6604 71.4535 17.905C71.7544 17.1502 72.1171 16.3826 72.5521 15.5817L77.4331 16.6074C78.126 16.7528 78.8414 16.4862 79.2698 15.9224C80.1514 14.7614 81.161 13.7222 82.2701 12.8329C82.8232 12.3895 83.071 11.6671 82.9068 10.9776L81.7524 6.13475C83.2472 5.28936 84.8248 4.61089 86.4667 4.10767L89.1877 8.2767C89.5748 8.87011 90.2687 9.18685 90.9721 9.0908C92.3793 8.89772 93.8284 8.88013 95.2785 9.0385C95.9823 9.11524 96.6681 8.77992 97.0391 8.17674L99.6523 3.92828C100.533 4.16339 101.339 4.42808 102.095 4.72918C102.849 5.03004 103.617 5.39274 104.418 5.82778L103.392 10.709C103.246 11.4021 103.513 12.1172 104.077 12.5457C105.239 13.428 106.278 14.4376 107.167 15.5462C107.61 16.0993 108.332 16.3466 109.022 16.1826L113.865 15.0283C114.71 16.5231 115.389 18.1007 115.892 19.7426L111.723 22.4636C111.129 22.8509 110.812 23.5458 110.909 24.248C111.102 25.656 111.119 27.1048 110.961 28.5543C110.884 29.2585 111.22 29.944 111.823 30.315L116.071 32.9282C115.836 33.8085 115.571 34.6153 115.27 35.3707Z" />
<path d="M97.6607 15.8538C91.7139 13.4835 84.9486 16.3929 82.5784 22.3392C80.2081 28.2856 83.1175 35.0516 89.0639 37.4216C90.4694 37.9818 91.92 38.247 93.3483 38.247C97.9623 38.247 102.336 35.4767 104.146 30.9359C106.516 24.9898 103.607 18.2237 97.6607 15.8538ZM100.741 29.5787C99.1191 33.647 94.4899 35.6377 90.421 34.0161C86.3527 32.3942 84.3618 27.765 85.9836 23.6964C87.222 20.5896 90.2148 18.6942 93.372 18.6942C94.3491 18.6942 95.3419 18.8758 96.3033 19.259C100.372 20.8809 102.363 25.5101 100.741 29.5787Z" />
</g>
<defs>
<clipPath id="clip0">
<rect/>
</clipPath>
</defs>
</svg>
