<svg  viewBox="0 0 33 33" fill="none" xmlns="http://www.w3.org/2000/svg">
<path d="M25.5494 12.4377L22.8022 10.791L19.4917 15.0077L22.8653 19.3116L25.5481 17.7045C26.6683 17.0344 27.2828 16.096 27.2828 15.069C27.2828 14.0421 26.6696 13.1091 25.5494 12.4377Z" fill="#2D3494"/>
<path d="M7.75032 27.8069L17.7975 15.0096L7.8777 2.3513C7.84619 2.34994 7.81336 2.33496 7.78184 2.33496C6.2546 2.33496 5.229 3.62204 5.229 5.53972V24.6076C5.23163 26.5075 6.2441 27.7878 7.75032 27.8069Z" fill="#2D3494"/>
<path d="M21.6482 10.1038L10.3442 3.33203L18.6462 13.9269L21.6482 10.1038Z" fill="#2D3494"/>
<path d="M18.6443 16.0859L10.123 26.9424L21.7119 20.0003L18.6443 16.0859Z" fill="#2D3494"/>
</svg>
