<svg viewBox="0 0 119 119" fill="none" xmlns="http://www.w3.org/2000/svg">
<path d="M102.918 54.9672C106.403 52.5185 108.711 48.4451 108.711 43.8537C108.711 36.3426 102.636 30.2678 95.1247 30.2678C87.6136 30.2678 81.5388 36.3426 81.5388 43.8537C81.5388 48.4451 83.8227 52.5185 87.331 54.9672C84.3407 56.0033 81.6094 57.6044 79.3019 59.6764C76.1233 56.9686 72.3795 54.8966 68.2825 53.6722C73.2507 50.6584 76.5942 45.1722 76.5942 38.9326C76.5942 29.4202 68.8947 21.7207 59.3823 21.7207C49.8698 21.7207 42.1704 29.4437 42.1704 38.9326C42.1704 45.1722 45.4903 50.6584 50.482 53.6722C46.4321 54.8966 42.7355 56.9451 39.5803 59.6058C37.2729 57.5808 34.5886 56.0033 31.6454 54.9908C35.1302 52.542 37.4377 48.4686 37.4377 43.8772C37.4377 36.3661 31.3629 30.2913 23.8518 30.2913C16.3407 30.2913 10.2659 36.3661 10.2659 43.8772C10.2659 48.4686 12.5499 52.542 16.0582 54.9908C6.71053 58.2166 0 67.0933 0 77.524V79.0781C0 79.1252 0.0470914 79.1722 0.0941828 79.1722H28.8906C28.7258 80.4673 28.6316 81.8094 28.6316 83.1515V84.7526C28.6316 91.675 34.2355 97.2789 41.1579 97.2789H77.6537C84.5762 97.2789 90.1801 91.675 90.1801 84.7526V83.1515C90.1801 81.8094 90.0859 80.4673 89.9211 79.1722H118.906C118.953 79.1722 119 79.1252 119 79.0781V77.524C118.953 67.0697 112.266 58.193 102.918 54.9672ZM85.3061 43.8301C85.3061 38.4146 89.7091 34.0116 95.1247 34.0116C100.54 34.0116 104.943 38.4146 104.943 43.8301C104.943 49.175 100.634 53.531 95.313 53.6487C95.2424 53.6487 95.1953 53.6487 95.1247 53.6487C95.054 53.6487 95.0069 53.6487 94.9363 53.6487C89.5914 53.5545 85.3061 49.1985 85.3061 43.8301ZM45.8906 38.9326C45.8906 31.5157 51.9183 25.488 59.3352 25.488C66.7521 25.488 72.7798 31.5157 72.7798 38.9326C72.7798 46.0905 67.1524 51.9534 60.1122 52.3537C59.8532 52.3537 59.5942 52.3537 59.3352 52.3537C59.0762 52.3537 58.8172 52.3537 58.5582 52.3537C51.518 51.9534 45.8906 46.0905 45.8906 38.9326ZM13.9626 43.8301C13.9626 38.4146 18.3657 34.0116 23.7812 34.0116C29.1967 34.0116 33.5997 38.4146 33.5997 43.8301C33.5997 49.175 29.2909 53.531 23.9695 53.6487C23.8989 53.6487 23.8518 53.6487 23.7812 53.6487C23.7105 53.6487 23.6634 53.6487 23.5928 53.6487C18.2715 53.5545 13.9626 49.1985 13.9626 43.8301ZM29.5499 75.3814H3.8144C4.87396 65.3509 13.3504 57.4866 23.6399 57.416C23.687 57.416 23.7341 57.416 23.7812 57.416C23.8283 57.416 23.8753 57.416 23.9224 57.416C28.8199 57.4395 33.2936 59.2526 36.7548 62.1958C33.3643 65.8689 30.8449 70.3897 29.5499 75.3814ZM86.3656 84.7526C86.3656 89.5794 82.4335 93.5116 77.6067 93.5116H41.1108C36.2839 93.5116 32.3518 89.5794 32.3518 84.7526V83.1515C32.3518 68.5296 44.0305 56.5684 58.5582 56.1445C58.8172 56.1681 59.0997 56.1681 59.3587 56.1681C59.6177 56.1681 59.9003 56.1681 60.1593 56.1445C74.687 56.5684 86.3656 68.5296 86.3656 83.1515V84.7526ZM89.1676 75.3814C87.8726 70.4132 85.4003 65.9631 82.0332 62.29C85.518 59.2761 90.0388 57.4631 94.9834 57.416C95.0305 57.416 95.0776 57.416 95.1247 57.416C95.1717 57.416 95.2188 57.416 95.2659 57.416C105.555 57.4866 114.032 65.3509 115.091 75.3814H89.1676Z" />
</svg>
